# xmcd
#
# Track frame offsets:
#	150
#	13205
#	25925
#	43473
#	61748
#	79885
#	93418
#	108180
#	122690
#	135665
#	151928
#	165373
#
# Disc length: 2443 seconds
#
# Revision: 0
# Processed by: cddbd v1.4PL0 Copyright (c) Steve Scherf et al.
# Submitted via: audiograbber 1.81.02
#
DISCID=9209890c
DTITLE=The Bastard Sons Of Johnny Cash - Distance Between
DYEAR=2002
DGENRE=Rock
TTITLE0=Monte Carlo
TTITLE1=Hard Times
TTITLE2=Distance Between
TTITLE3=Long Black Veil
TTITLE4=Burn Down
TTITLE5=Tears Of Gold
TTITLE6=Wind It Up
TTITLE7=Marfa Lights
TTITLE8=Damage Is Done
TTITLE9=Where I Found You
TTITLE10=Last Goodbye
TTITLE11=Beautiful Cage
EXTD=
EXTT0=
EXTT1=
EXTT2=
EXTT3=
EXTT4=
EXTT5=
EXTT6=
EXTT7=
EXTT8=
EXTT9=
EXTT10=
EXTT11=
PLAYORDER=
